<svg id="Group_119" data-name="Group 119" xmlns="http://www.w3.org/2000/svg" width="21.54" height="21.538" viewBox="0 0 21.54 21.538">
  <path id="Path_152" data-name="Path 152" d="M439.034,30.681a.826.826,0,0,0-1.154-.177L433.545,33.7a.825.825,0,0,0,.977,1.331l4.335-3.195A.822.822,0,0,0,439.034,30.681Z" transform="translate(-431.365 -17.629)" fill="#fff"/>
  <path id="Path_153" data-name="Path 153" d="M442.747,28.062a.826.826,0,0,0-1.154-.177l-4.555,3.355a.824.824,0,1,0,.977,1.327l4.555-3.355A.822.822,0,0,0,442.747,28.062Z" transform="translate(-423.21 -23.744)" fill="#fff"/>
  <path id="Path_154" data-name="Path 154" d="M441.37,35.618l-3.508-4.769a.824.824,0,1,0-1.327.977l3.508,4.769a.824.824,0,0,0,1.327-.977Z" transform="translate(-423.974 -17.235)" fill="#fff"/>
  <path id="Path_155" data-name="Path 155" d="M438.69,31.978l-3.351-4.558a.825.825,0,1,0-1.331.977l3.355,4.558a.824.824,0,0,0,1.327-.977Z" transform="translate(-429.868 -25.242)" fill="#fff"/>
  <path id="Path_156" data-name="Path 156" d="M444.022,30.9a.82.82,0,0,0-.537-.323l-5.6-.854a.825.825,0,0,0-.247,1.631l5.592.85a.823.823,0,0,0,.787-1.3Z" transform="translate(-422.644 -19.106)" fill="#fff"/>
  <path id="Path_157" data-name="Path 157" d="M439.467,30.205a.832.832,0,0,0-.54-.327l-5.322-.81a.825.825,0,1,0-.25,1.631l5.326.81a.822.822,0,0,0,.937-.69A.834.834,0,0,0,439.467,30.205Z" transform="translate(-432.655 -20.628)" fill="#fff"/>
  <path id="Path_158" data-name="Path 158" d="M438.176,26.864a.828.828,0,0,0-1.481.363l-.85,5.6a.825.825,0,1,0,1.631.247l.85-5.592A.837.837,0,0,0,438.176,26.864Z" transform="translate(-425.228 -26.531)" fill="#fff"/>
  <path id="Path_159" data-name="Path 159" d="M437.521,31.155a.811.811,0,0,0-.54-.327.82.82,0,0,0-.937.69l-.85,5.6a.823.823,0,1,0,1.627.247l.854-5.6A.816.816,0,0,0,437.521,31.155Z" transform="translate(-426.751 -16.522)" fill="#fff"/>
</svg>
