<svg xmlns="http://www.w3.org/2000/svg" width="1149.299" height="1055.429" viewBox="0 0 1149.299 1055.429">
  <path id="Path_668" data-name="Path 668" d="M353.81,269.293c95.495-55.1,207.672-62.082,314.144-80.641,70.108-12.21,132.543-41.447,198.94-66.781C1035.705,57.462,1155.321,90.016,1263.2,251.93c89.887,134.931,159.935,313.192,25.048,446.974-46.659,46.263-101.451,68.651-158.488,78.5-34.23,5.921-75.352,2.5-106.654,27.793-33.017,26.659-47.984,78.417-64.151,117.257-24.062,57.826-49.574,118.523-91.045,164.933-95.146,106.475-185.354,55.852-254.708-50.328-33.715-51.625-60.176-107.933-90.864-161.487-43.535-75.942-103.222-122.942-170.107-174.8-59.576-46.19-119.347-103.087-134.44-179.265-17.116-86.444,30.632-175.318,97.893-226.824A348.415,348.415,0,0,1,353.81,269.293Z" transform="translate(-214.295 -90.881)" fill="#a42530"/>
</svg>
