<svg xmlns="http://www.w3.org/2000/svg" width="1085.217" height="1056.239" viewBox="0 0 1085.217 1056.239">
  <path id="Path_541" data-name="Path 541" d="M346.031,269.43c90.17-55.143,196.093-62.13,296.628-80.7,66.2-12.219,125.153-41.479,187.847-66.832,159.4-64.459,272.345-31.88,374.211,130.158,84.875,135.035,151.018,313.432,23.652,447.317-44.057,46.3-95.794,68.7-149.651,78.565-32.322,5.925-71.151,2.506-100.707,27.815C946.836,832.43,932.7,884.227,917.438,923.1c-22.72,57.87-46.81,118.614-85.968,165.06-89.841,106.557-175.019,55.9-240.506-50.367-31.835-51.664-56.821-108.016-85.8-161.611-41.107-76-97.467-123.036-160.623-174.936C288.289,655.017,231.85,598.076,217.6,521.84c-16.161-86.51,28.924-175.452,92.435-227A328.219,328.219,0,0,1,346.031,269.43Z" transform="translate(-214.295 -90.881)" fill="#db372f"/>
</svg>
