<svg xmlns="http://www.w3.org/2000/svg" width="1243.451" height="1067.763" viewBox="0 0 1243.451 1067.763">
  <path id="Path_548" data-name="Path 548" d="M360.414,275.1c100.015-56.467,217.5-63.622,329.014-82.641,73.426-12.513,138.817-42.475,208.356-68.437,176.8-66.007,385.464-97.7,498.451,68.225,94.141,138.277,84.12,386.017-57.151,523.117-48.868,47.411-106.253,70.354-165.99,80.452-35.85,6.068-78.919,2.566-111.7,28.483-34.58,27.32-48.459,54.307-65.392,94.11-25.2,59.26-37.549,96.209-80.982,143.77-99.649,109.115-204.95,97.284-277.587-11.53C602.12,997.747,569.063,951.3,536.922,896.422c-45.6-77.825-108.108-125.991-178.159-179.137-62.4-47.335-125-105.644-140.8-183.711-17.926-88.587,32.082-179.665,102.527-232.449A365.615,365.615,0,0,1,360.414,275.1Z" transform="translate(-214.295 -70.612)" fill="#2c8e9d"/>
</svg>
