<svg xmlns="http://www.w3.org/2000/svg" width="1135.898" height="1043.123" viewBox="0 0 1135.898 1043.123">
  <path id="Path_673" data-name="Path 673" d="M352.184,267.212c94.381-54.458,205.25-61.358,310.481-79.7,69.29-12.068,131-40.964,196.62-66,166.842-63.658,285.064-31.484,391.687,128.542,88.839,133.358,158.07,309.54,24.756,441.762-46.115,45.724-100.268,67.851-156.64,77.589-33.831,5.852-74.473,2.475-105.41,27.469-32.632,26.349-47.424,77.5-63.4,115.889-23.781,57.151-49,117.141-89.983,163.01-94.036,105.234-183.192,55.2-251.738-49.741-33.322-51.023-59.474-106.675-89.8-159.6C475.723,791.37,416.731,744.919,350.626,693.663,291.744,648.012,232.67,591.778,217.754,516.488c-16.916-85.436,30.275-173.273,96.752-224.18A344.349,344.349,0,0,1,352.184,267.212Z" transform="translate(-214.295 -90.881)" fill="#00194b"/>
</svg>
